%TF.GenerationSoftware,KiCad,Pcbnew,(5.1.7)-1*%
%TF.CreationDate,2021-03-08T23:00:09-08:00*%
%TF.ProjectId,MBP Universal Upgrade,4d425020-556e-4697-9665-7273616c2055,rev?*%
%TF.SameCoordinates,Original*%
%TF.FileFunction,Legend,Top*%
%TF.FilePolarity,Positive*%
%FSLAX46Y46*%
G04 Gerber Fmt 4.6, Leading zero omitted, Abs format (unit mm)*
G04 Created by KiCad (PCBNEW (5.1.7)-1) date 2021-03-08 23:00:09*
%MOMM*%
%LPD*%
G01*
G04 APERTURE LIST*
%ADD10C,0.150000*%
%ADD11C,0.254000*%
G04 APERTURE END LIST*
D10*
X107338509Y-91342823D02*
X107338509Y-91949966D01*
X107298033Y-92071395D01*
X107217080Y-92152347D01*
X107095652Y-92192823D01*
X107014700Y-92192823D01*
X108148033Y-92192823D02*
X107743271Y-92192823D01*
X107743271Y-91342823D01*
X108917080Y-92111871D02*
X108876604Y-92152347D01*
X108755176Y-92192823D01*
X108674223Y-92192823D01*
X108552795Y-92152347D01*
X108471842Y-92071395D01*
X108431366Y-91990442D01*
X108390890Y-91828538D01*
X108390890Y-91707109D01*
X108431366Y-91545204D01*
X108471842Y-91464252D01*
X108552795Y-91383300D01*
X108674223Y-91342823D01*
X108755176Y-91342823D01*
X108876604Y-91383300D01*
X108917080Y-91423776D01*
X109524223Y-91342823D02*
X109524223Y-91949966D01*
X109483747Y-92071395D01*
X109402795Y-92152347D01*
X109281366Y-92192823D01*
X109200414Y-92192823D01*
X110333747Y-92192823D02*
X109928985Y-92192823D01*
X109928985Y-91342823D01*
X111102795Y-92111871D02*
X111062319Y-92152347D01*
X110940890Y-92192823D01*
X110859938Y-92192823D01*
X110738509Y-92152347D01*
X110657557Y-92071395D01*
X110617080Y-91990442D01*
X110576604Y-91828538D01*
X110576604Y-91707109D01*
X110617080Y-91545204D01*
X110657557Y-91464252D01*
X110738509Y-91383300D01*
X110859938Y-91342823D01*
X110940890Y-91342823D01*
X111062319Y-91383300D01*
X111102795Y-91423776D01*
X111709938Y-91342823D02*
X111709938Y-91949966D01*
X111669461Y-92071395D01*
X111588509Y-92152347D01*
X111467080Y-92192823D01*
X111386128Y-92192823D01*
X112519461Y-92192823D02*
X112114700Y-92192823D01*
X112114700Y-91342823D01*
X113288509Y-92111871D02*
X113248033Y-92152347D01*
X113126604Y-92192823D01*
X113045652Y-92192823D01*
X112924223Y-92152347D01*
X112843271Y-92071395D01*
X112802795Y-91990442D01*
X112762319Y-91828538D01*
X112762319Y-91707109D01*
X112802795Y-91545204D01*
X112843271Y-91464252D01*
X112924223Y-91383300D01*
X113045652Y-91342823D01*
X113126604Y-91342823D01*
X113248033Y-91383300D01*
X113288509Y-91423776D01*
X113895652Y-91342823D02*
X113895652Y-91949966D01*
X113855176Y-92071395D01*
X113774223Y-92152347D01*
X113652795Y-92192823D01*
X113571842Y-92192823D01*
X114705176Y-92192823D02*
X114300414Y-92192823D01*
X114300414Y-91342823D01*
X115474223Y-92111871D02*
X115433747Y-92152347D01*
X115312319Y-92192823D01*
X115231366Y-92192823D01*
X115109938Y-92152347D01*
X115028985Y-92071395D01*
X114988509Y-91990442D01*
X114948033Y-91828538D01*
X114948033Y-91707109D01*
X114988509Y-91545204D01*
X115028985Y-91464252D01*
X115109938Y-91383300D01*
X115231366Y-91342823D01*
X115312319Y-91342823D01*
X115433747Y-91383300D01*
X115474223Y-91423776D01*
X102052500Y-92443204D02*
X102004880Y-92538442D01*
X102004880Y-92681300D01*
X102052500Y-92824157D01*
X102147738Y-92919395D01*
X102242976Y-92967014D01*
X102433452Y-93014633D01*
X102576309Y-93014633D01*
X102766785Y-92967014D01*
X102862023Y-92919395D01*
X102957261Y-92824157D01*
X103004880Y-92681300D01*
X103004880Y-92586061D01*
X102957261Y-92443204D01*
X102909642Y-92395585D01*
X102576309Y-92395585D01*
X102576309Y-92586061D01*
X103004880Y-91967014D02*
X102004880Y-91967014D01*
X103004880Y-91395585D01*
X102004880Y-91395585D01*
X103004880Y-90919395D02*
X102004880Y-90919395D01*
X102004880Y-90681300D01*
X102052500Y-90538442D01*
X102147738Y-90443204D01*
X102242976Y-90395585D01*
X102433452Y-90347966D01*
X102576309Y-90347966D01*
X102766785Y-90395585D01*
X102862023Y-90443204D01*
X102957261Y-90538442D01*
X103004880Y-90681300D01*
X103004880Y-90919395D01*
X100316257Y-94699080D02*
X100316257Y-93699080D01*
X100887685Y-94699080D02*
X100459114Y-94127652D01*
X100887685Y-93699080D02*
X100316257Y-94270509D01*
X101316257Y-94699080D02*
X101316257Y-94032414D01*
X101316257Y-94222890D02*
X101363876Y-94127652D01*
X101411495Y-94080033D01*
X101506733Y-94032414D01*
X101601971Y-94032414D01*
X102363876Y-94032414D02*
X102363876Y-94699080D01*
X101935304Y-94032414D02*
X101935304Y-94556223D01*
X101982923Y-94651461D01*
X102078161Y-94699080D01*
X102221019Y-94699080D01*
X102316257Y-94651461D01*
X102363876Y-94603842D01*
X102697209Y-94032414D02*
X103078161Y-94032414D01*
X102840066Y-93699080D02*
X102840066Y-94556223D01*
X102887685Y-94651461D01*
X102982923Y-94699080D01*
X103078161Y-94699080D01*
X103840066Y-94699080D02*
X103840066Y-94175271D01*
X103792447Y-94080033D01*
X103697209Y-94032414D01*
X103506733Y-94032414D01*
X103411495Y-94080033D01*
X103840066Y-94651461D02*
X103744828Y-94699080D01*
X103506733Y-94699080D01*
X103411495Y-94651461D01*
X103363876Y-94556223D01*
X103363876Y-94460985D01*
X103411495Y-94365747D01*
X103506733Y-94318128D01*
X103744828Y-94318128D01*
X103840066Y-94270509D01*
X104221019Y-94032414D02*
X104459114Y-94699080D01*
X104697209Y-94032414D01*
X105792447Y-94651461D02*
X105935304Y-94699080D01*
X106173400Y-94699080D01*
X106268638Y-94651461D01*
X106316257Y-94603842D01*
X106363876Y-94508604D01*
X106363876Y-94413366D01*
X106316257Y-94318128D01*
X106268638Y-94270509D01*
X106173400Y-94222890D01*
X105982923Y-94175271D01*
X105887685Y-94127652D01*
X105840066Y-94080033D01*
X105792447Y-93984795D01*
X105792447Y-93889557D01*
X105840066Y-93794319D01*
X105887685Y-93746700D01*
X105982923Y-93699080D01*
X106221019Y-93699080D01*
X106363876Y-93746700D01*
X106792447Y-94699080D02*
X106792447Y-93699080D01*
X107221019Y-94699080D02*
X107221019Y-94175271D01*
X107173400Y-94080033D01*
X107078161Y-94032414D01*
X106935304Y-94032414D01*
X106840066Y-94080033D01*
X106792447Y-94127652D01*
X108125780Y-94699080D02*
X108125780Y-94175271D01*
X108078161Y-94080033D01*
X107982923Y-94032414D01*
X107792447Y-94032414D01*
X107697209Y-94080033D01*
X108125780Y-94651461D02*
X108030542Y-94699080D01*
X107792447Y-94699080D01*
X107697209Y-94651461D01*
X107649590Y-94556223D01*
X107649590Y-94460985D01*
X107697209Y-94365747D01*
X107792447Y-94318128D01*
X108030542Y-94318128D01*
X108125780Y-94270509D01*
X108601971Y-94699080D02*
X108601971Y-93699080D01*
X109030542Y-94699080D02*
X109030542Y-94175271D01*
X108982923Y-94080033D01*
X108887685Y-94032414D01*
X108744828Y-94032414D01*
X108649590Y-94080033D01*
X108601971Y-94127652D01*
%TO.C,J1*%
D11*
X115286366Y-93233723D02*
X115286366Y-94140866D01*
X115225890Y-94322295D01*
X115104938Y-94443247D01*
X114923509Y-94503723D01*
X114802557Y-94503723D01*
X116556366Y-94503723D02*
X115830652Y-94503723D01*
X116193509Y-94503723D02*
X116193509Y-93233723D01*
X116072557Y-93415152D01*
X115951604Y-93536104D01*
X115830652Y-93596580D01*
%TO.C,P1*%
D10*
X106624380Y-87796595D02*
X105624380Y-87796595D01*
X105624380Y-87415642D01*
X105672000Y-87320404D01*
X105719619Y-87272785D01*
X105814857Y-87225166D01*
X105957714Y-87225166D01*
X106052952Y-87272785D01*
X106100571Y-87320404D01*
X106148190Y-87415642D01*
X106148190Y-87796595D01*
X106624380Y-86272785D02*
X106624380Y-86844214D01*
X106624380Y-86558500D02*
X105624380Y-86558500D01*
X105767238Y-86653738D01*
X105862476Y-86748976D01*
X105910095Y-86844214D01*
%TD*%
M02*
