%TF.GenerationSoftware,KiCad,Pcbnew,(5.1.7)-1*%
%TF.CreationDate,2021-03-08T23:00:09-08:00*%
%TF.ProjectId,MBP Universal Upgrade,4d425020-556e-4697-9665-7273616c2055,rev?*%
%TF.SameCoordinates,Original*%
%TF.FileFunction,Soldermask,Top*%
%TF.FilePolarity,Negative*%
%FSLAX46Y46*%
G04 Gerber Fmt 4.6, Leading zero omitted, Abs format (unit mm)*
G04 Created by KiCad (PCBNEW (5.1.7)-1) date 2021-03-08 23:00:09*
%MOMM*%
%LPD*%
G01*
G04 APERTURE LIST*
%ADD10R,0.220000X0.600000*%
%ADD11R,0.220000X0.900000*%
%ADD12R,0.500000X0.850000*%
%ADD13R,0.600000X3.000000*%
%ADD14R,2.000000X2.000000*%
G04 APERTURE END LIST*
D10*
%TO.C,J1*%
X114140900Y-93009000D03*
D11*
X114140900Y-90379000D03*
X113740900Y-93009000D03*
X113740900Y-90379000D03*
X113340900Y-93009000D03*
X113340900Y-90379000D03*
X112940900Y-93009000D03*
X112940900Y-90379000D03*
X112540900Y-93009000D03*
X112540900Y-90379000D03*
X112140900Y-93009000D03*
X112140900Y-90379000D03*
X111740900Y-93009000D03*
X111740900Y-90379000D03*
X111340900Y-93009000D03*
X111340900Y-90379000D03*
X110940900Y-93009000D03*
X110940900Y-90379000D03*
X110540900Y-93009000D03*
X110540900Y-90379000D03*
X110140900Y-93009000D03*
X110140900Y-90379000D03*
X109740900Y-93009000D03*
X109740900Y-90379000D03*
X109340900Y-93009000D03*
X109340900Y-90379000D03*
X108940900Y-93009000D03*
X108940900Y-90379000D03*
X108540900Y-93009000D03*
X108540900Y-90379000D03*
D12*
X114940900Y-92434000D03*
X114940900Y-90954000D03*
X107740900Y-90954000D03*
X107740900Y-92434000D03*
%TD*%
D13*
%TO.C,P1*%
X115908400Y-87099400D03*
X115108400Y-87099400D03*
X105108400Y-87099400D03*
X101908400Y-87099400D03*
X104308400Y-87099400D03*
X107108400Y-87099400D03*
X113508400Y-87099400D03*
X114308400Y-87099400D03*
X103508400Y-87099400D03*
X102708400Y-87099400D03*
X107908400Y-87099400D03*
X109508400Y-87099400D03*
X110308400Y-87099400D03*
X108708400Y-87099400D03*
X112708400Y-87099400D03*
X111908400Y-87099400D03*
X111108400Y-87099400D03*
X101108400Y-87099400D03*
%TD*%
D14*
%TO.C,MH1*%
X104279700Y-91694000D03*
%TD*%
M02*
