M48
; DRILL file {KiCad (5.1.7)-1} date 03/08/21 23:03:27
; FORMAT={-:-/ absolute / inch / decimal}
; #@! TF.CreationDate,2021-03-08T23:03:27-08:00
; #@! TF.GenerationSoftware,Kicad,Pcbnew,(5.1.7)-1
; #@! TF.FileFunction,Plated,1,2,PTH
FMAT,2
INCH
T1C0.0118
T2C0.0394
%
G90
G05
T1
X3.9805Y-3.6635
X4.107Y-3.4295
X4.17Y-3.3695
X4.2385Y-3.685
X4.248Y-3.5444
X4.2483Y-3.4291
X4.2798Y-3.4291
X4.3113Y-3.4291
X4.327Y-3.6125
X4.355Y-3.7185
X4.3613Y-3.6101
X4.3899Y-3.6101
X4.4058Y-3.4291
X4.4235Y-3.6093
X4.4373Y-3.4286
X4.4558Y-3.6101
X4.4688Y-3.4286
X4.4844Y-3.6101
X4.525Y-3.54
X4.532Y-3.4295
X4.5634Y-3.429
T2
X4.1055Y-3.61
T0
M30
