G04*
G04 #@! TF.GenerationSoftware,Altium Limited,Altium Designer,21.1.1 (26)*
G04*
G04 Layer_Physical_Order=1*
G04 Layer_Color=255*
%FSLAX25Y25*%
%MOIN*%
G70*
G04*
G04 #@! TF.SameCoordinates,35221D43-94D7-4FF8-A6B6-1D0A0E8E6920*
G04*
G04*
G04 #@! TF.FilePolarity,Positive*
G04*
G01*
G75*
%ADD11R,0.02362X0.11811*%
%ADD12R,0.00866X0.03543*%
%ADD13R,0.00866X0.02362*%
%ADD14R,0.01968X0.03347*%
%ADD16C,0.00500*%
%ADD17C,0.00866*%
%ADD18C,0.05906*%
%ADD19C,0.02362*%
G36*
X65930Y1000D02*
X1000D01*
Y40733D01*
X65930D01*
Y1000D01*
D02*
G37*
%LPC*%
G36*
X55224Y39406D02*
X48713D01*
Y33334D01*
Y26594D01*
X55224D01*
Y39406D01*
D02*
G37*
G36*
X45776D02*
X39264D01*
Y33334D01*
Y26594D01*
X45776D01*
Y39406D01*
D02*
G37*
G36*
X36327D02*
X29815D01*
Y33334D01*
X29815Y33334D01*
Y32666D01*
X29815Y32666D01*
Y26594D01*
X36327D01*
Y39406D01*
D02*
G37*
G36*
X64673D02*
X58161D01*
Y26594D01*
X59121D01*
Y24995D01*
X56890Y22765D01*
X53000D01*
X52707Y22706D01*
X52459Y22541D01*
X51833Y21915D01*
X51667Y21667D01*
X51609Y21374D01*
Y20449D01*
X51441D01*
Y15905D01*
X56457D01*
Y20449D01*
X53139D01*
Y21057D01*
X53317Y21235D01*
X57207D01*
X57500Y21294D01*
X57748Y21459D01*
X60427Y24138D01*
X60592Y24386D01*
X60651Y24679D01*
Y26594D01*
X64673D01*
Y39406D01*
D02*
G37*
G36*
X21366D02*
X2256D01*
Y33334D01*
Y26594D01*
X7040D01*
Y26577D01*
X7099Y26284D01*
X7264Y26036D01*
X7397Y25904D01*
Y6839D01*
X7455Y6546D01*
X7621Y6298D01*
X11321Y2597D01*
X11569Y2432D01*
X11862Y2373D01*
X38598D01*
X38891Y2432D01*
X39139Y2597D01*
X40029Y3488D01*
X40195Y3735D01*
X40253Y4028D01*
X40253Y4028D01*
Y4821D01*
X40425Y4993D01*
X40590Y5241D01*
X40649Y5533D01*
Y5551D01*
X40709D01*
Y10095D01*
X40421D01*
X40214Y10594D01*
X40413Y10794D01*
X40669Y11412D01*
Y12081D01*
X40413Y12699D01*
X39940Y13172D01*
X39478Y13363D01*
X39297Y13890D01*
X40935Y15527D01*
X41047Y15695D01*
X41156Y15858D01*
X41156Y15858D01*
X41156Y15858D01*
X41165Y15905D01*
X43858D01*
Y20449D01*
X41079D01*
X41049Y20494D01*
X40936Y20663D01*
X40936Y20663D01*
X40936Y20663D01*
X40767Y20776D01*
X40605Y20884D01*
X40605Y20884D01*
X40605Y20884D01*
X40403Y20924D01*
X40354Y20934D01*
X40404Y21434D01*
X44274D01*
X44294Y21430D01*
X44847D01*
X45310Y20967D01*
Y20449D01*
X45142D01*
Y16140D01*
X45142Y15905D01*
X45056Y15441D01*
X44792Y15177D01*
X44659Y14857D01*
X44074Y14736D01*
X43886Y14923D01*
X43268Y15179D01*
X42600D01*
X41982Y14923D01*
X41509Y14450D01*
X41253Y13832D01*
Y13163D01*
X41509Y12546D01*
X41982Y12073D01*
X42600Y11817D01*
X43268D01*
X43716Y11461D01*
X43722Y11430D01*
X43887Y11182D01*
X44475Y10594D01*
X44268Y10095D01*
X41992D01*
Y5551D01*
X42160D01*
Y5425D01*
X42219Y5133D01*
X42384Y4884D01*
X42448Y4821D01*
Y4386D01*
X42506Y4093D01*
X42672Y3845D01*
X44256Y2261D01*
X44504Y2095D01*
X44797Y2036D01*
X59923D01*
X60216Y2095D01*
X60464Y2261D01*
X60545Y2342D01*
X60993Y1894D01*
X61611Y1638D01*
X62279D01*
X62897Y1894D01*
X63370Y2367D01*
X63626Y2985D01*
Y3653D01*
X63370Y4271D01*
X62897Y4744D01*
X62279Y5000D01*
X61976D01*
X61642Y5500D01*
X61758Y5780D01*
Y6449D01*
X61502Y7067D01*
X61029Y7540D01*
X60411Y7796D01*
X59743D01*
X59125Y7540D01*
X58652Y7067D01*
X58396Y6449D01*
Y5780D01*
X58652Y5162D01*
X58769Y5045D01*
X58541Y4566D01*
X45528D01*
X45125Y4969D01*
X45149Y4993D01*
X45315Y5241D01*
X45373Y5533D01*
Y5551D01*
X45433D01*
Y9663D01*
X45433Y10080D01*
X45727Y10080D01*
X46716D01*
Y5551D01*
X50157D01*
Y10095D01*
X50097D01*
Y10112D01*
X50039Y10405D01*
X49873Y10653D01*
X49702Y10825D01*
Y11336D01*
X49702Y11336D01*
X49643Y11629D01*
X49478Y11877D01*
X49478Y11877D01*
X48599Y12756D01*
X48351Y12922D01*
X48058Y12980D01*
X48003D01*
X47728Y13480D01*
X47898Y13890D01*
Y14559D01*
X47642Y15177D01*
X47413Y15405D01*
X47620Y15905D01*
X50157D01*
Y20449D01*
X49989D01*
Y21776D01*
X49989Y21776D01*
X49931Y22068D01*
X49765Y22316D01*
X49765Y22316D01*
X47346Y24736D01*
X47098Y24901D01*
X46805Y24960D01*
X45139D01*
X45119Y24963D01*
X32858D01*
X32838Y24960D01*
X26293D01*
X25358Y25895D01*
X25435Y26083D01*
Y26751D01*
X25179Y27369D01*
X24706Y27842D01*
X24089Y28098D01*
X23420D01*
X22802Y27842D01*
X22329Y27369D01*
X22073Y26751D01*
Y26083D01*
X22329Y25465D01*
X22802Y24992D01*
X23420Y24736D01*
X24089D01*
X24276Y24814D01*
X24668Y24421D01*
X24477Y23959D01*
X22158D01*
X20023Y26094D01*
X20230Y26594D01*
X21366D01*
Y39406D01*
D02*
G37*
G36*
X55197Y14681D02*
X54528D01*
X53910Y14425D01*
X53437Y13952D01*
X53431Y13938D01*
X52931D01*
X52925Y13952D01*
X52452Y14425D01*
X51834Y14681D01*
X51166D01*
X50548Y14425D01*
X50075Y13952D01*
X49819Y13334D01*
Y12666D01*
X50075Y12048D01*
X50548Y11575D01*
X51166Y11319D01*
X51834D01*
X51842Y11314D01*
X51874Y10802D01*
X51833Y10761D01*
X51667Y10513D01*
X51609Y10221D01*
Y10095D01*
X51441D01*
Y5551D01*
X54882D01*
Y10095D01*
X54822D01*
Y10112D01*
X54764Y10405D01*
X54598Y10653D01*
X54456Y10795D01*
X54484Y11289D01*
X54528Y11319D01*
X55197D01*
X55814Y11575D01*
X56287Y12048D01*
X56543Y12666D01*
Y13334D01*
X56287Y13952D01*
X55814Y14425D01*
X55197Y14681D01*
D02*
G37*
%LPD*%
G36*
X40214Y16248D02*
X35476Y11510D01*
Y6048D01*
X33040Y6048D01*
X33040Y11540D01*
X34613Y13113D01*
Y19942D01*
X40215D01*
X40214Y16248D01*
D02*
G37*
G36*
X16489Y26368D02*
X16547Y26075D01*
X16713Y25827D01*
X20886Y21654D01*
X21134Y21488D01*
X21427Y21430D01*
X21427Y21430D01*
X33682D01*
X33702Y21434D01*
X34425D01*
X34474Y20934D01*
X34223Y20884D01*
X33892Y20663D01*
X33671Y20332D01*
X33594Y19942D01*
Y13536D01*
X32319Y12261D01*
X32098Y11930D01*
X32020Y11540D01*
X32020Y6048D01*
X32098Y5658D01*
X32268Y5403D01*
X32182Y5108D01*
X32054Y4903D01*
X12593D01*
X9926Y7570D01*
Y14034D01*
Y15301D01*
X10218Y15359D01*
X10466Y15525D01*
X10763Y15821D01*
X10928Y16070D01*
X10987Y16362D01*
Y17253D01*
X10928Y17545D01*
X10763Y17793D01*
X10585Y17971D01*
X10512Y18292D01*
X10585Y18612D01*
X10763Y18790D01*
X10928Y19038D01*
X10987Y19331D01*
Y20221D01*
X10928Y20514D01*
X10763Y20762D01*
X10466Y21059D01*
X10374Y21120D01*
X10259Y21607D01*
X10271Y21724D01*
X10306Y21758D01*
X10471Y22006D01*
X10530Y22299D01*
Y23190D01*
X10471Y23482D01*
X10306Y23730D01*
X10009Y24027D01*
X9979Y24047D01*
X9926Y24100D01*
Y25904D01*
X10058Y26036D01*
X10224Y26284D01*
X10282Y26577D01*
Y26594D01*
X16489D01*
Y26368D01*
D02*
G37*
D11*
X28346Y33000D02*
D03*
X62992D02*
D03*
X59842D02*
D03*
X56693D02*
D03*
X53543D02*
D03*
X50394D02*
D03*
X47244D02*
D03*
X44094D02*
D03*
X40945D02*
D03*
X37795D02*
D03*
X34646D02*
D03*
X31496D02*
D03*
X3937D02*
D03*
X10236D02*
D03*
X13386D02*
D03*
X16535D02*
D03*
X7087D02*
D03*
X19685D02*
D03*
D12*
X44500Y18177D02*
D03*
X55524D02*
D03*
X53949Y7823D02*
D03*
Y18177D02*
D03*
X52374Y7823D02*
D03*
Y18177D02*
D03*
X50799Y7823D02*
D03*
Y18177D02*
D03*
X49224Y7823D02*
D03*
Y18177D02*
D03*
X47650Y7823D02*
D03*
Y18177D02*
D03*
X46075Y7823D02*
D03*
Y18177D02*
D03*
X44500Y7823D02*
D03*
X42925D02*
D03*
Y18177D02*
D03*
X41350Y7823D02*
D03*
Y18177D02*
D03*
X39776Y7823D02*
D03*
Y18177D02*
D03*
X38201Y7823D02*
D03*
Y18177D02*
D03*
X36626Y7823D02*
D03*
Y18177D02*
D03*
X35051Y7823D02*
D03*
Y18177D02*
D03*
X33476Y7823D02*
D03*
Y18177D02*
D03*
D13*
X55524Y7823D02*
D03*
D14*
X58673Y10087D02*
D03*
Y15913D02*
D03*
X30327D02*
D03*
Y10087D02*
D03*
D16*
X34100Y21199D02*
X44142D01*
X44500Y20841D01*
X33000Y20500D02*
X33695Y21195D01*
X34096D02*
X34100Y21199D01*
X33695Y21195D02*
X34096D01*
X44500Y18177D02*
Y20841D01*
X9161Y23783D02*
Y24441D01*
Y23783D02*
X9458Y23486D01*
X9468D01*
X9765Y23190D01*
Y22299D02*
Y23190D01*
X9468Y22002D02*
X9765Y22299D01*
X9458Y22002D02*
X9468D01*
X9161Y21705D02*
X9458Y22002D01*
X9161Y20815D02*
Y21705D01*
Y20815D02*
X9458Y20518D01*
X9925D01*
X10222Y20221D01*
Y19331D02*
Y20221D01*
X9925Y19034D02*
X10222Y19331D01*
X9458Y19034D02*
X9925D01*
X9161Y18737D02*
X9458Y19034D01*
X9161Y17846D02*
Y18737D01*
Y17846D02*
X9458Y17549D01*
X9925D01*
X10222Y17253D01*
Y16362D02*
Y17253D01*
X9925Y16065D02*
X10222Y16362D01*
X9458Y16065D02*
X9925D01*
X9161Y15768D02*
X9458Y16065D01*
X9161Y14034D02*
Y15768D01*
Y7253D02*
Y14034D01*
Y24441D02*
Y26220D01*
X47541Y7931D02*
Y10112D01*
X47937Y10508D01*
Y10922D01*
X49224Y7823D02*
X49333Y7931D01*
Y10112D01*
X48937Y10508D02*
X49333Y10112D01*
X46774Y10845D02*
X47144Y11215D01*
X48937Y10508D02*
Y11336D01*
X47144Y11215D02*
X47644D01*
X45428Y12137D02*
X45721Y11845D01*
X44428Y11723D02*
X45307Y10845D01*
X45721Y11845D02*
X46359D01*
X42934Y13498D02*
X43438D01*
X46359Y11845D02*
X46730Y12215D01*
X46217Y13721D02*
Y14224D01*
X43438Y13498D02*
X44428Y12508D01*
X45428Y12932D02*
X46217Y13721D01*
X47644Y11215D02*
X47937Y10922D01*
X45428Y12137D02*
Y12932D01*
X45307Y10845D02*
X46774D01*
X46730Y12215D02*
X48058D01*
X44428Y11723D02*
Y12508D01*
X47541Y7931D02*
X47650Y7823D01*
X48058Y12215D02*
X48937Y11336D01*
X41350Y7823D02*
Y10594D01*
X57207Y22000D02*
X59886Y24679D01*
X59842Y33000D02*
X59886Y32957D01*
Y24679D02*
Y32957D01*
X59824Y5862D02*
X60077Y6115D01*
X59036Y3801D02*
X59824Y4589D01*
Y5862D01*
X61831Y3206D02*
X61945Y3319D01*
X44797Y2801D02*
X59923D01*
X60327Y3206D01*
X61831D01*
X16535Y33000D02*
X17254Y32282D01*
Y26368D02*
X21427Y22195D01*
X17254Y26368D02*
Y32282D01*
X19093Y25943D02*
X21841Y23195D01*
X19093Y32408D02*
X19685Y33000D01*
X19093Y25943D02*
Y32408D01*
X38201Y5425D02*
X38488Y5138D01*
X38201Y5425D02*
Y7823D01*
X38184Y4138D02*
X38488Y4442D01*
Y5138D01*
X12276Y4138D02*
X38184D01*
X39884Y5533D02*
Y7715D01*
X39776Y7823D02*
X39884Y7715D01*
X39488Y5138D02*
X39884Y5533D01*
X38598Y3138D02*
X39488Y4028D01*
Y5138D01*
X11862Y3138D02*
X38598D01*
X8161Y6839D02*
X11862Y3138D01*
X9161Y7253D02*
X12276Y4138D01*
X9518Y32282D02*
X10236Y33000D01*
X9518Y26577D02*
Y32282D01*
X9161Y26220D02*
X9518Y26577D01*
X7087Y33000D02*
X7805Y32282D01*
Y26577D02*
Y32282D01*
Y26577D02*
X8161Y26220D01*
Y6839D02*
Y26220D01*
X44290Y22199D02*
X44294Y22195D01*
X45164D01*
X44704Y23199D02*
X44708Y23195D01*
X45985D01*
X45119Y24199D02*
X45123Y24195D01*
X46805D01*
X49224Y21776D01*
X32858Y24199D02*
X45119D01*
X33272Y23199D02*
X44704D01*
X45985Y23195D02*
X47650Y21530D01*
X45164Y22195D02*
X46075Y21284D01*
X33686Y22199D02*
X44290D01*
X21841Y23195D02*
X33268D01*
X21427Y22195D02*
X33682D01*
X33686Y22199D01*
X25976Y24195D02*
X32854D01*
X32858Y24199D01*
X23754Y26417D02*
X25976Y24195D01*
X33268Y23195D02*
X33272Y23199D01*
X23754Y26417D02*
X23754D01*
X45211Y3801D02*
X59036D01*
X43213Y4386D02*
Y5138D01*
X44608Y5533D02*
Y7715D01*
X43213Y4386D02*
X44797Y2801D01*
X42925Y5425D02*
X43213Y5138D01*
X44500Y7823D02*
X44608Y7715D01*
X44251Y4762D02*
X45211Y3801D01*
X44251Y5176D02*
X44608Y5533D01*
X44251Y4762D02*
Y5176D01*
X42925Y5425D02*
Y7823D01*
X46075Y18177D02*
Y21284D01*
X49224Y18177D02*
Y21776D01*
X47650Y18177D02*
Y21530D01*
X50799Y15381D02*
Y18177D01*
X41350Y4575D02*
Y7823D01*
X54862Y12924D02*
Y13000D01*
X53681Y11743D02*
X54862Y12924D01*
X53681Y10488D02*
Y11743D01*
X51500Y12924D02*
Y13000D01*
Y12924D02*
X52681Y11743D01*
Y10528D02*
Y11743D01*
X53681Y10488D02*
X54057Y10112D01*
Y7931D02*
Y10112D01*
X53949Y7823D02*
X54057Y7931D01*
X52374Y10221D02*
X52681Y10528D01*
X52374Y7823D02*
Y10221D01*
X53000Y22000D02*
X57207D01*
X52374Y21374D02*
X53000Y22000D01*
X52374Y18177D02*
Y21374D01*
D17*
X35051Y15052D02*
Y18177D01*
Y7823D02*
Y12000D01*
X38247Y11747D02*
X38988D01*
X36626Y10126D02*
X38247Y11747D01*
X36626Y7823D02*
Y10126D01*
X50799Y18177D02*
Y22280D01*
D18*
X15500Y9500D02*
D03*
D19*
X4500Y23500D02*
D03*
X4000Y7000D02*
D03*
X40945Y33000D02*
D03*
X44094D02*
D03*
X46217Y14224D02*
D03*
X42934Y13498D02*
D03*
X38988Y11747D02*
D03*
X61945Y3319D02*
D03*
X60077Y6115D02*
D03*
X3937Y33000D02*
D03*
X50394Y33000D02*
D03*
X53543D02*
D03*
X56693Y30906D02*
D03*
X37795Y30118D02*
D03*
X23754Y26417D02*
D03*
X13386Y33076D02*
D03*
X26500Y16076D02*
D03*
X25839Y34601D02*
D03*
X35926Y14688D02*
D03*
X62992Y33000D02*
D03*
X54862Y13000D02*
D03*
X34646Y33000D02*
D03*
X31496D02*
D03*
X51500Y13000D02*
D03*
M02*
