G04*
G04 #@! TF.GenerationSoftware,Altium Limited,Altium Designer,21.1.1 (26)*
G04*
G04 Layer_Color=65535*
%FSLAX25Y25*%
%MOIN*%
G70*
G04*
G04 #@! TF.SameCoordinates,0F198C13-5191-4433-9763-90CB8E17D5DB*
G04*
G04*
G04 #@! TF.FilePolarity,Positive*
G04*
G01*
G75*
%ADD10C,0.00602*%
D10*
X2102Y12558D02*
Y8945D01*
Y12558D02*
X3651D01*
X4167Y12386D01*
X4339Y12214D01*
X4511Y11870D01*
Y11526D01*
X4339Y11182D01*
X4167Y11010D01*
X3651Y10837D01*
X2102D02*
X3651D01*
X4167Y10665D01*
X4339Y10493D01*
X4511Y10149D01*
Y9633D01*
X4339Y9289D01*
X4167Y9117D01*
X3651Y8945D01*
X2102D01*
X5492Y11354D02*
X6525Y8945D01*
X7557Y11354D02*
X6525Y8945D01*
X6180Y8257D01*
X5836Y7912D01*
X5492Y7740D01*
X5320D01*
X2102Y5572D02*
Y1959D01*
X4511Y5572D02*
X2102Y3163D01*
X2963Y4023D02*
X4511Y1959D01*
X5320Y4368D02*
Y1959D01*
Y3335D02*
X5492Y3851D01*
X5836Y4195D01*
X6180Y4368D01*
X6696D01*
X7023D02*
Y2647D01*
X7196Y2131D01*
X7540Y1959D01*
X8056D01*
X8400Y2131D01*
X8916Y2647D01*
Y4368D02*
Y1959D01*
X10379Y5572D02*
Y2647D01*
X10551Y2131D01*
X10895Y1959D01*
X11239D01*
X9863Y4368D02*
X11067D01*
X13820D02*
Y1959D01*
Y3851D02*
X13476Y4195D01*
X13132Y4368D01*
X12616D01*
X12271Y4195D01*
X11927Y3851D01*
X11755Y3335D01*
Y2991D01*
X11927Y2475D01*
X12271Y2131D01*
X12616Y1959D01*
X13132D01*
X13476Y2131D01*
X13820Y2475D01*
X14784Y4368D02*
X15816Y1959D01*
X16849Y4368D02*
X15816Y1959D01*
X22682Y5056D02*
X22337Y5400D01*
X21821Y5572D01*
X21133D01*
X20617Y5400D01*
X20273Y5056D01*
Y4712D01*
X20445Y4368D01*
X20617Y4195D01*
X20961Y4023D01*
X21993Y3679D01*
X22337Y3507D01*
X22509Y3335D01*
X22682Y2991D01*
Y2475D01*
X22337Y2131D01*
X21821Y1959D01*
X21133D01*
X20617Y2131D01*
X20273Y2475D01*
X23490Y5572D02*
Y1959D01*
Y3679D02*
X24006Y4195D01*
X24351Y4368D01*
X24867D01*
X25211Y4195D01*
X25383Y3679D01*
Y1959D01*
X28394Y4368D02*
Y1959D01*
Y3851D02*
X28050Y4195D01*
X27706Y4368D01*
X27190D01*
X26845Y4195D01*
X26501Y3851D01*
X26329Y3335D01*
Y2991D01*
X26501Y2475D01*
X26845Y2131D01*
X27190Y1959D01*
X27706D01*
X28050Y2131D01*
X28394Y2475D01*
X29358Y5572D02*
Y1959D01*
Y3679D02*
X29874Y4195D01*
X30218Y4368D01*
X30734D01*
X31078Y4195D01*
X31250Y3679D01*
Y1959D01*
X2602Y23414D02*
X4151D01*
X4667Y23586D01*
X4839Y23758D01*
X5011Y24102D01*
Y24618D01*
X4839Y24963D01*
X4667Y25135D01*
X4151Y25307D01*
X2602D01*
Y21693D01*
X5820Y24618D02*
X6164Y24791D01*
X6680Y25307D01*
Y21693D01*
X62721Y14613D02*
Y11860D01*
X62549Y11344D01*
X62376Y11172D01*
X62032Y11000D01*
X61688D01*
X61344Y11172D01*
X61172Y11344D01*
X61000Y11860D01*
Y12205D01*
X63650Y13925D02*
X63994Y14097D01*
X64510Y14613D01*
Y11000D01*
M02*
