G04*
G04 #@! TF.GenerationSoftware,Altium Limited,Altium Designer,21.1.1 (26)*
G04*
G04 Layer_Physical_Order=2*
G04 Layer_Color=16711680*
%FSLAX25Y25*%
%MOIN*%
G70*
G04*
G04 #@! TF.SameCoordinates,0F198C13-5191-4433-9763-90CB8E17D5DB*
G04*
G04*
G04 #@! TF.FilePolarity,Positive*
G04*
G01*
G75*
%ADD16C,0.00500*%
%ADD17C,0.00866*%
%ADD18C,0.05906*%
%ADD19C,0.02362*%
%ADD20C,0.01968*%
G36*
X65930Y1000D02*
X1000D01*
Y40733D01*
X65930D01*
Y1000D01*
D02*
G37*
%LPC*%
G36*
X53888Y34732D02*
X53199D01*
X52562Y34469D01*
X52075Y33981D01*
X51968Y33725D01*
X51862Y33981D01*
X51375Y34469D01*
X50738Y34732D01*
X50049D01*
X49412Y34469D01*
X48925Y33981D01*
X48661Y33345D01*
Y32655D01*
X48925Y32019D01*
X49412Y31531D01*
X50025Y31278D01*
X50194Y31109D01*
Y30555D01*
X50291Y30067D01*
X50567Y29654D01*
X54122Y26099D01*
X54536Y25822D01*
X55023Y25725D01*
X58286D01*
Y25460D01*
X58383Y24972D01*
X58659Y24558D01*
X58959Y24259D01*
X59372Y23982D01*
X59797Y23898D01*
X59882Y23473D01*
X60158Y23059D01*
X60458Y22760D01*
X60871Y22483D01*
X61359Y22386D01*
X61529D01*
Y7345D01*
X61413Y7229D01*
X61058Y7583D01*
X60422Y7847D01*
X59732D01*
X59096Y7583D01*
X58608Y7096D01*
X58345Y6459D01*
Y5770D01*
X58608Y5133D01*
X59096Y4646D01*
X59732Y4383D01*
X60422D01*
X60655Y4479D01*
X60476Y4300D01*
X60213Y3664D01*
Y2975D01*
X60476Y2338D01*
X60964Y1851D01*
X61600Y1587D01*
X62289D01*
X62926Y1851D01*
X63413Y2338D01*
X63677Y2975D01*
Y3664D01*
X63576Y3909D01*
Y4373D01*
X64705Y5502D01*
X64981Y5915D01*
X65078Y6403D01*
Y24111D01*
X64981Y24599D01*
X64705Y25012D01*
X60815Y28901D01*
X60402Y29177D01*
X59914Y29274D01*
X55966D01*
X53948Y31293D01*
X54525Y31531D01*
X55012Y32019D01*
X55276Y32655D01*
Y33345D01*
X55012Y33981D01*
X54525Y34469D01*
X53888Y34732D01*
D02*
G37*
G36*
X44439D02*
X43750D01*
X43113Y34469D01*
X42626Y33981D01*
X42520Y33725D01*
X42413Y33981D01*
X41926Y34469D01*
X41289Y34732D01*
X40600D01*
X39964Y34469D01*
X39476Y33981D01*
X39213Y33345D01*
Y32655D01*
X39476Y32019D01*
X39964Y31531D01*
X40600Y31268D01*
X40614D01*
X40732Y31150D01*
Y30194D01*
X40829Y29706D01*
X41105Y29293D01*
X42590Y27808D01*
X43004Y27531D01*
X43492Y27435D01*
X46706D01*
X57226Y16915D01*
Y12028D01*
X54509Y9311D01*
X54291Y9637D01*
X53969Y9959D01*
X53556Y10236D01*
X53068Y10333D01*
X52424D01*
X51937Y10236D01*
X51534Y9966D01*
X51394Y10106D01*
X50981Y10382D01*
X50493Y10479D01*
X49850D01*
X49362Y10382D01*
X48948Y10106D01*
X48627Y9784D01*
X48350Y9370D01*
X48331Y9274D01*
X47731D01*
X46640Y10366D01*
Y12341D01*
X46953Y12654D01*
X47198Y12756D01*
X47685Y13243D01*
X47949Y13880D01*
Y14569D01*
X47685Y15206D01*
X47198Y15693D01*
X46561Y15957D01*
X45872D01*
X45235Y15693D01*
X44748Y15206D01*
X44484Y14569D01*
Y14281D01*
X44403Y14479D01*
X43915Y14966D01*
X43279Y15230D01*
X42589D01*
X41953Y14966D01*
X41465Y14479D01*
X41202Y13842D01*
Y13153D01*
X41465Y12517D01*
X41953Y12029D01*
X42589Y11766D01*
X43091D01*
Y9424D01*
X43188Y8936D01*
X43464Y8523D01*
X45888Y6099D01*
X46301Y5822D01*
X46789Y5725D01*
X55414D01*
X55902Y5822D01*
X56315Y6099D01*
X60401Y10185D01*
X60677Y10598D01*
X60774Y11086D01*
Y17857D01*
X60677Y18345D01*
X60401Y18758D01*
X48549Y30610D01*
X48136Y30886D01*
X47648Y30983D01*
X44434D01*
X44315Y31102D01*
X44510Y31297D01*
X45076Y31531D01*
X45563Y32019D01*
X45827Y32655D01*
Y33345D01*
X45563Y33981D01*
X45076Y34469D01*
X44439Y34732D01*
D02*
G37*
G36*
X34990D02*
X34301D01*
X33664Y34469D01*
X33177Y33981D01*
X33071Y33725D01*
X32965Y33981D01*
X32477Y34469D01*
X31841Y34732D01*
X31152D01*
X30515Y34469D01*
X30027Y33981D01*
X29764Y33345D01*
Y32655D01*
X30027Y32019D01*
X30515Y31531D01*
X31152Y31268D01*
X31165D01*
X31285Y31148D01*
Y28019D01*
X31382Y27531D01*
X31658Y27117D01*
X35185Y23591D01*
X35599Y23314D01*
X36086Y23217D01*
X44917D01*
X51407Y16728D01*
Y14785D01*
X51354Y14732D01*
X51155D01*
X50519Y14469D01*
X50031Y13981D01*
X49768Y13345D01*
Y12655D01*
X50031Y12019D01*
X50519Y11531D01*
X51155Y11268D01*
X51845D01*
X52481Y11531D01*
X52969Y12019D01*
X53181Y12532D01*
X53394Y12019D01*
X53881Y11531D01*
X54518Y11268D01*
X55207D01*
X55844Y11531D01*
X56331Y12019D01*
X56595Y12655D01*
Y13345D01*
X56331Y13981D01*
X55844Y14469D01*
X55207Y14732D01*
X55008D01*
X54956Y14785D01*
Y17670D01*
X54859Y18158D01*
X54582Y18571D01*
X46760Y26393D01*
X46347Y26669D01*
X45859Y26766D01*
X37029D01*
X34834Y28961D01*
Y31070D01*
X35061Y31297D01*
X35627Y31531D01*
X36114Y32019D01*
X36378Y32655D01*
Y33345D01*
X36114Y33981D01*
X35627Y34469D01*
X34990Y34732D01*
D02*
G37*
G36*
X61839Y40023D02*
X24127D01*
X23353Y39869D01*
X22697Y39431D01*
X20977Y37711D01*
X20538Y37054D01*
X20384Y36280D01*
Y32927D01*
X20538Y32153D01*
X20977Y31497D01*
X22697Y29777D01*
X23135Y29484D01*
X23353Y29338D01*
X24127Y29184D01*
X25478D01*
X26414Y28248D01*
Y22176D01*
X26568Y21402D01*
X27007Y20746D01*
X34495Y13257D01*
X35152Y12819D01*
X35926Y12664D01*
X36700Y12819D01*
X37357Y13257D01*
X37795Y13913D01*
X37949Y14688D01*
X37795Y15462D01*
X37357Y16118D01*
X30461Y23014D01*
Y29086D01*
X30307Y29860D01*
X29868Y30516D01*
X27746Y32638D01*
X27090Y33077D01*
X26316Y33231D01*
X24965D01*
X24431Y33765D01*
Y35442D01*
X24965Y35977D01*
X60969D01*
Y33000D01*
X61123Y32226D01*
X61562Y31569D01*
X62218Y31131D01*
X62992Y30977D01*
X63766Y31131D01*
X64423Y31569D01*
X64861Y32226D01*
X65015Y33000D01*
Y36847D01*
X64861Y37621D01*
X64423Y38277D01*
X63270Y39431D01*
X62613Y39869D01*
X61839Y40023D01*
D02*
G37*
G36*
X13730Y34808D02*
X13041D01*
X12405Y34545D01*
X11917Y34057D01*
X11654Y33421D01*
Y32731D01*
X11917Y32095D01*
X12405Y31607D01*
X13041Y31344D01*
X13730D01*
X14367Y31607D01*
X14532Y31772D01*
X20789Y25516D01*
X21202Y25239D01*
X21690Y25142D01*
X22579D01*
X22773Y24948D01*
X23410Y24685D01*
X24099D01*
X24735Y24948D01*
X25223Y25436D01*
X25486Y26072D01*
Y26761D01*
X25223Y27398D01*
X24735Y27885D01*
X24099Y28149D01*
X23410D01*
X22773Y27885D01*
X22579Y27691D01*
X22218D01*
X15932Y33977D01*
X15519Y34253D01*
X15031Y34350D01*
X14561D01*
X14367Y34545D01*
X13730Y34808D01*
D02*
G37*
G36*
X4282Y34732D02*
X3592D01*
X2956Y34468D01*
X2468Y33981D01*
X2205Y33345D01*
Y32655D01*
X2468Y32019D01*
X2956Y31531D01*
X3592Y31268D01*
X4282D01*
X4918Y31531D01*
X4926Y31539D01*
X6895D01*
X18539Y19895D01*
Y15000D01*
X18650Y14441D01*
X18967Y13967D01*
X23967Y8967D01*
X24441Y8650D01*
X25000Y8539D01*
X37242D01*
X37801Y8650D01*
X38275Y8967D01*
X39322Y10014D01*
X39333D01*
X39970Y10278D01*
X40457Y10765D01*
X40720Y11402D01*
Y12091D01*
X40457Y12728D01*
X39970Y13215D01*
X39333Y13479D01*
X38644D01*
X38007Y13215D01*
X37520Y12728D01*
X37256Y12091D01*
Y12081D01*
X36636Y11461D01*
X25605D01*
X21461Y15605D01*
Y20500D01*
X21350Y21059D01*
X21033Y21533D01*
X8533Y34033D01*
X8059Y34350D01*
X7500Y34461D01*
X4926D01*
X4918Y34468D01*
X4282Y34732D01*
D02*
G37*
%LPD*%
D16*
X59552Y26948D02*
X59552Y26948D01*
X59729Y26771D01*
X59851Y26649D01*
Y26200D02*
Y26649D01*
X59560Y25910D02*
X59851Y26200D01*
X59560Y25460D02*
Y25910D01*
Y25460D02*
X59860Y25160D01*
X60310D01*
X60600Y25450D01*
X61050D01*
X61350Y25150D01*
Y24701D02*
Y25150D01*
X61059Y24410D02*
X61350Y24701D01*
X61059Y23961D02*
Y24410D01*
Y23961D02*
X61359Y23661D01*
X61809D01*
X62099Y23951D01*
X62549D01*
X62549Y23951D01*
X62726Y23774D01*
X62803Y23697D01*
X59500Y27000D02*
X59552Y26948D01*
X47203Y8000D02*
X48956D01*
X53712D02*
X54462D01*
X53390Y8322D02*
X53712Y8000D01*
X53390Y8322D02*
Y8736D01*
X53068Y9058D02*
X53390Y8736D01*
X52424Y9058D02*
X53068D01*
X52103Y8736D02*
X52424Y9058D01*
X52103Y8322D02*
Y8736D01*
X51781Y8000D02*
X52103Y8322D01*
X51137Y8000D02*
X51781D01*
X50815Y8322D02*
X51137Y8000D01*
X50815Y8322D02*
Y8883D01*
X50493Y9205D02*
X50815Y8883D01*
X49850Y9205D02*
X50493D01*
X49528Y8883D02*
X49850Y9205D01*
X49528Y8322D02*
Y8883D01*
X49206Y8000D02*
X49528Y8322D01*
X48956Y8000D02*
X49206D01*
X54462D02*
X55000D01*
X45365Y9838D02*
X47203Y8000D01*
X55000D02*
X58500Y11500D01*
X44365Y9424D02*
Y12571D01*
X46789Y7000D02*
X55414D01*
X45365Y9838D02*
Y12869D01*
X44365Y9424D02*
X46789Y7000D01*
X43438Y13498D02*
X44365Y12571D01*
X45365Y12869D02*
X46217Y13721D01*
Y14224D01*
X40972Y32711D02*
Y33000D01*
X44122Y32711D02*
Y33000D01*
X47234Y28709D02*
X58500Y17443D01*
Y11500D02*
Y17443D01*
X40972Y32711D02*
X42006Y31678D01*
Y30194D02*
Y31678D01*
Y30194D02*
X43492Y28709D01*
X47234D01*
X47648Y29709D02*
X59500Y17857D01*
Y11086D02*
Y17857D01*
X55414Y7000D02*
X59500Y11086D01*
X43006Y31596D02*
X44122Y32711D01*
X43006Y30608D02*
Y31596D01*
Y30608D02*
X43906Y29709D01*
X47648D01*
X42934Y13498D02*
X43438D01*
X61745Y5759D02*
X62803Y6817D01*
X60077Y6115D02*
X60433Y5759D01*
X62301Y4901D02*
X63803Y6403D01*
X62301Y3675D02*
Y4901D01*
X62803Y6817D02*
Y23697D01*
X63803Y6403D02*
Y24111D01*
X60433Y5759D02*
X61745D01*
X59914Y28000D02*
X63803Y24111D01*
X61945Y3319D02*
X62301Y3675D01*
X33560Y28433D02*
X36501Y25492D01*
X32560Y28019D02*
Y31675D01*
X33560Y31598D02*
X34673Y32711D01*
X33560Y28433D02*
Y31598D01*
X32560Y28019D02*
X36086Y24492D01*
X31524Y32711D02*
X32560Y31675D01*
X34673Y32711D02*
Y33000D01*
X31524Y32711D02*
Y33000D01*
X21690Y26417D02*
X23754D01*
X15031Y33076D02*
X21690Y26417D01*
X13386Y33076D02*
X15031D01*
X51468Y30555D02*
X55023Y27000D01*
X50421Y32684D02*
X51468Y31637D01*
Y30555D02*
Y31637D01*
X52469Y30969D02*
Y31637D01*
X53571Y32739D01*
X52469Y30969D02*
X55438Y28000D01*
X55023Y27000D02*
X59500D01*
X50421Y32684D02*
Y33000D01*
X53571Y32739D02*
Y33000D01*
X55438Y28000D02*
X59914D01*
X36086Y24492D02*
X45445D01*
X36501Y25492D02*
X45859D01*
X45445Y24492D02*
X52681Y17256D01*
X45859Y25492D02*
X53681Y17670D01*
Y14257D02*
Y17670D01*
X52681Y14257D02*
Y17256D01*
X53681Y14257D02*
X54862Y13076D01*
X51500D02*
X52681Y14257D01*
X51500Y13000D02*
Y13076D01*
X54862Y13000D02*
Y13076D01*
D17*
X7500Y33000D02*
X20000Y20500D01*
X4752Y33000D02*
X7500D01*
X20000Y15000D02*
Y20500D01*
X25000Y10000D02*
X37242D01*
X20000Y15000D02*
X25000Y10000D01*
X37242D02*
X38988Y11747D01*
D18*
X15500Y9500D02*
D03*
D19*
X40945Y33000D02*
D03*
X44094D02*
D03*
X46217Y14224D02*
D03*
X42934Y13498D02*
D03*
X38988Y11747D02*
D03*
X61945Y3319D02*
D03*
X60077Y6115D02*
D03*
X3937Y33000D02*
D03*
X50394Y33000D02*
D03*
X53543D02*
D03*
X56693Y30906D02*
D03*
X37795Y30118D02*
D03*
X23754Y26417D02*
D03*
X13386Y33076D02*
D03*
X26500Y16076D02*
D03*
X25839Y34601D02*
D03*
X35926Y14688D02*
D03*
X62992Y33000D02*
D03*
X54862Y13000D02*
D03*
X34646Y33000D02*
D03*
X31496D02*
D03*
X51500Y13000D02*
D03*
D20*
X61839Y38000D02*
X62992Y36847D01*
X24127Y38000D02*
X61839D01*
X62992Y33000D02*
Y36847D01*
X28437Y22176D02*
Y29086D01*
X24127Y31207D02*
X26316D01*
X28437Y29086D01*
X22408Y32927D02*
X24127Y31207D01*
X22408Y32927D02*
Y36280D01*
X24127Y38000D01*
X28437Y22176D02*
X35926Y14688D01*
M02*
