G04*
G04 #@! TF.GenerationSoftware,Altium Limited,Altium Designer,21.1.1 (26)*
G04*
G04 Layer_Color=8388736*
%FSLAX25Y25*%
%MOIN*%
G70*
G04*
G04 #@! TF.SameCoordinates,3D48EE94-6162-499E-B610-A2F6C9389EA5*
G04*
G04*
G04 #@! TF.FilePolarity,Negative*
G04*
G01*
G75*
%ADD11R,0.00866X0.03543*%
%ADD12R,0.02362X0.11811*%
%ADD13R,0.00866X0.02362*%
%ADD14R,0.01968X0.03347*%
%ADD15C,0.06706*%
D11*
X44500Y18177D02*
D03*
X55524D02*
D03*
X53949Y7823D02*
D03*
Y18177D02*
D03*
X52374Y7823D02*
D03*
Y18177D02*
D03*
X50799Y7823D02*
D03*
Y18177D02*
D03*
X49224Y7823D02*
D03*
Y18177D02*
D03*
X47650Y7823D02*
D03*
Y18177D02*
D03*
X46075Y7823D02*
D03*
Y18177D02*
D03*
X44500Y7823D02*
D03*
X42925D02*
D03*
Y18177D02*
D03*
X41350Y7823D02*
D03*
Y18177D02*
D03*
X39776Y7823D02*
D03*
Y18177D02*
D03*
X38201Y7823D02*
D03*
Y18177D02*
D03*
X36626Y7823D02*
D03*
Y18177D02*
D03*
X35051Y7823D02*
D03*
Y18177D02*
D03*
X33476Y7823D02*
D03*
Y18177D02*
D03*
D12*
X63020Y33000D02*
D03*
X59870D02*
D03*
X20500D02*
D03*
X7902D02*
D03*
X17350D02*
D03*
X28374D02*
D03*
X53571D02*
D03*
X56721D02*
D03*
X14201D02*
D03*
X11051D02*
D03*
X31524D02*
D03*
X37823D02*
D03*
X40972D02*
D03*
X34673D02*
D03*
X50421D02*
D03*
X47272D02*
D03*
X44122D02*
D03*
X4752D02*
D03*
D13*
X55524Y7823D02*
D03*
D14*
X58673Y10087D02*
D03*
Y15913D02*
D03*
X30327D02*
D03*
Y10087D02*
D03*
D15*
X15500Y9500D02*
D03*
M02*
