M48
;Layer_Color=9474304
;FILE_FORMAT=2:5
INCH,TZ
;TYPE=PLATED
T1F00S00C0.01181
T2F00S00C0.03937
%
T01
X3937Y33000
X13386Y33076
X25839Y34601
X31496Y33000
X34646
X37795Y30118
X40945Y33000
X44094
X50394
X53543
X56693Y30906
X62992Y33000
X54862Y13000
X51500
X46217Y14224
X42934Y13498
X38988Y11747
X35926Y14688
X26500Y16076
X23754Y26417
X60077Y6115
X61945Y3319
T02
X15500Y9500
M30
