G04*
G04 #@! TF.GenerationSoftware,Altium Limited,Altium Designer,21.1.1 (26)*
G04*
G04 Layer_Physical_Order=1*
G04 Layer_Color=255*
%FSLAX25Y25*%
%MOIN*%
G70*
G04*
G04 #@! TF.SameCoordinates,3D48EE94-6162-499E-B610-A2F6C9389EA5*
G04*
G04*
G04 #@! TF.FilePolarity,Positive*
G04*
G01*
G75*
%ADD11R,0.00866X0.03543*%
%ADD12R,0.02362X0.11811*%
%ADD13R,0.00866X0.02362*%
%ADD14R,0.01968X0.03347*%
%ADD16C,0.00866*%
%ADD17C,0.00500*%
%ADD18C,0.05906*%
%ADD19C,0.02362*%
G36*
X65930Y1000D02*
X62346D01*
X62301Y1481D01*
X62938Y1745D01*
X63425Y2232D01*
X63689Y2869D01*
Y3558D01*
X63425Y4195D01*
X62938Y4682D01*
X62301Y4946D01*
X62064D01*
X61730Y5446D01*
X61821Y5664D01*
Y6354D01*
X61557Y6990D01*
X61070Y7478D01*
X60433Y7741D01*
X59744D01*
X59108Y7478D01*
X58620Y6990D01*
X58356Y6354D01*
Y5664D01*
X58393Y5576D01*
X58148Y5076D01*
X55382D01*
Y10594D01*
X55382Y10594D01*
X55227Y11091D01*
X55332Y11320D01*
X55844Y11531D01*
X56331Y12019D01*
X56595Y12655D01*
Y13345D01*
X56331Y13981D01*
X55844Y14469D01*
X55207Y14732D01*
X54518D01*
X53881Y14469D01*
X53476Y14063D01*
X53181Y14016D01*
X52886Y14063D01*
X52481Y14469D01*
X51845Y14732D01*
X51155D01*
X50519Y14469D01*
X50031Y13981D01*
X49768Y13345D01*
Y12655D01*
X50031Y12019D01*
X50519Y11531D01*
X51024Y11322D01*
X51129Y11095D01*
X51009Y10776D01*
X50973Y10727D01*
X50800Y10594D01*
X50657D01*
Y10594D01*
X50177D01*
X49944Y10943D01*
X47821Y13066D01*
X47999Y13243D01*
X48263Y13880D01*
Y14569D01*
X48123Y14906D01*
X48452Y15405D01*
X50799Y15405D01*
X51157Y15405D01*
X56957D01*
Y20726D01*
X57207D01*
X57695Y20822D01*
X58108Y21099D01*
X60053Y23043D01*
X60329Y23457D01*
X60426Y23945D01*
Y26094D01*
X65201D01*
Y39906D01*
X57689D01*
Y26094D01*
X57877D01*
Y24472D01*
X56679Y23275D01*
X53000D01*
X52512Y23178D01*
X52099Y22901D01*
X51473Y22275D01*
X51196Y21862D01*
X51125Y21500D01*
X50827Y21344D01*
X50499Y21535D01*
Y21776D01*
X50402Y22263D01*
X50126Y22677D01*
X47706Y25096D01*
X47293Y25372D01*
X46805Y25469D01*
X45139D01*
X45119Y25473D01*
X32858D01*
X32838Y25469D01*
X26504D01*
X25486Y26487D01*
Y26761D01*
X25223Y27398D01*
X24735Y27885D01*
X24099Y28149D01*
X23410D01*
X23181Y28054D01*
X22681Y28389D01*
Y39906D01*
X2571D01*
Y26094D01*
X7441D01*
X7443Y26089D01*
X7702Y25701D01*
Y6024D01*
X7799Y5536D01*
X8075Y5122D01*
X10961Y2237D01*
X11374Y1961D01*
X11862Y1864D01*
X38598D01*
X39086Y1961D01*
X39499Y2237D01*
X40389Y3127D01*
X40666Y3540D01*
X40763Y4028D01*
Y4610D01*
X40785Y4632D01*
X41009Y4967D01*
X41503Y5043D01*
X41870Y4755D01*
X41938Y4653D01*
Y4386D01*
X42035Y3898D01*
X42311Y3484D01*
X43896Y1900D01*
X44309Y1624D01*
X44797Y1527D01*
X59450D01*
X59938Y1624D01*
X60351Y1900D01*
X60586Y2135D01*
X60975Y1745D01*
X61612Y1481D01*
X61568Y1000D01*
X1000D01*
Y40733D01*
X65930D01*
Y1000D01*
D02*
G37*
G36*
X39917Y15952D02*
X35476Y11510D01*
Y10984D01*
X35276Y10685D01*
X35258Y10594D01*
X35193D01*
Y10267D01*
X35165Y10126D01*
Y7823D01*
X35193Y7682D01*
Y6048D01*
X33393Y6048D01*
X33040Y6402D01*
X33040Y11540D01*
X34613Y13113D01*
Y15405D01*
X34909D01*
Y19924D01*
X39917D01*
Y15952D01*
D02*
G37*
G36*
X16794Y25553D02*
X16891Y25065D01*
X17168Y24652D01*
X20526Y21294D01*
X20939Y21017D01*
X21427Y20920D01*
X33618D01*
Y15528D01*
X33594Y15405D01*
Y13536D01*
X32319Y12261D01*
X32098Y11930D01*
X32020Y11540D01*
X32020Y6402D01*
X32043Y6284D01*
Y5413D01*
X12804D01*
X11251Y6966D01*
Y25701D01*
X11510Y26089D01*
X11511Y26094D01*
X16794D01*
Y25553D01*
D02*
G37*
%LPC*%
G36*
X55752Y39906D02*
X48240D01*
Y26094D01*
X55752D01*
Y39906D01*
D02*
G37*
G36*
X46303D02*
X38791D01*
Y26094D01*
X46303D01*
Y39906D01*
D02*
G37*
G36*
X36854D02*
X29342D01*
Y26094D01*
X36854D01*
Y39906D01*
D02*
G37*
%LPD*%
D11*
X44500Y18177D02*
D03*
X55524D02*
D03*
X53949Y7823D02*
D03*
Y18177D02*
D03*
X52374Y7823D02*
D03*
Y18177D02*
D03*
X50799Y7823D02*
D03*
Y18177D02*
D03*
X49224Y7823D02*
D03*
Y18177D02*
D03*
X47650Y7823D02*
D03*
Y18177D02*
D03*
X46075Y7823D02*
D03*
Y18177D02*
D03*
X44500Y7823D02*
D03*
X42925D02*
D03*
Y18177D02*
D03*
X41350Y7823D02*
D03*
Y18177D02*
D03*
X39776Y7823D02*
D03*
Y18177D02*
D03*
X38201Y7823D02*
D03*
Y18177D02*
D03*
X36626Y7823D02*
D03*
Y18177D02*
D03*
X35051Y7823D02*
D03*
Y18177D02*
D03*
X33476Y7823D02*
D03*
Y18177D02*
D03*
D12*
X63020Y33000D02*
D03*
X59870D02*
D03*
X20500D02*
D03*
X7902D02*
D03*
X17350D02*
D03*
X28374D02*
D03*
X53571D02*
D03*
X56721D02*
D03*
X14201D02*
D03*
X11051D02*
D03*
X31524D02*
D03*
X37823D02*
D03*
X40972D02*
D03*
X34673D02*
D03*
X50421D02*
D03*
X47272D02*
D03*
X44122D02*
D03*
X4752D02*
D03*
D13*
X55524Y7823D02*
D03*
D14*
X58673Y10087D02*
D03*
Y15913D02*
D03*
X30327D02*
D03*
Y10087D02*
D03*
D16*
X38247Y11747D02*
X38988D01*
X36626Y10126D02*
X38247Y11747D01*
X36626Y7823D02*
Y10126D01*
X50799Y18177D02*
Y22280D01*
Y7823D02*
Y10942D01*
D17*
X44290Y22199D02*
X44294Y22195D01*
X45164D01*
X44704Y23199D02*
X44708Y23195D01*
X45985D01*
X45119Y24199D02*
X45123Y24195D01*
X46805D01*
X34100Y21199D02*
X44142D01*
X44500Y20841D01*
X46805Y24195D02*
X49224Y21776D01*
X32858Y24199D02*
X45119D01*
X33272Y23199D02*
X44704D01*
X45985Y23195D02*
X47650Y21530D01*
X45164Y22195D02*
X46075Y21284D01*
X33686Y22199D02*
X44290D01*
X46377Y11293D02*
X47826Y9845D01*
X46791Y12293D02*
X49042Y10042D01*
X38988Y11524D02*
Y11747D01*
X21841Y23195D02*
X33268D01*
X18069Y25553D02*
Y32282D01*
X19782Y25254D02*
Y32282D01*
Y25254D02*
X21841Y23195D01*
X21427Y22195D02*
X33682D01*
X18069Y25553D02*
X21427Y22195D01*
X33682D02*
X33686Y22199D01*
X25976Y24195D02*
X32854D01*
X32858Y24199D01*
X23754Y26417D02*
X25976Y24195D01*
X33000Y20500D02*
X33695Y21195D01*
X33268Y23195D02*
X33272Y23199D01*
X34096Y21195D02*
X34100Y21199D01*
X33695Y21195D02*
X34096D01*
X44500Y18177D02*
Y20841D01*
X23754Y26417D02*
X23754D01*
X19782Y32282D02*
X20500Y33000D01*
X45211Y3801D02*
X59036D01*
X43213Y4386D02*
Y5138D01*
X44608Y5533D02*
Y7715D01*
X59036Y3801D02*
X59732Y4498D01*
X43213Y4386D02*
X44797Y2801D01*
X42925Y5425D02*
X43213Y5138D01*
X44797Y2801D02*
X59450D01*
X59732Y4498D02*
Y5653D01*
X44500Y7823D02*
X44608Y7715D01*
X59450Y2801D02*
X60219Y3570D01*
X61600D01*
X44251Y4762D02*
X45211Y3801D01*
X50799Y5425D02*
Y7823D01*
X50175Y4801D02*
X50799Y5425D01*
X46909Y4801D02*
X50175D01*
X59732Y5653D02*
X60089Y6009D01*
X46075Y5636D02*
Y7823D01*
X61600Y3570D02*
X61957Y3213D01*
X46075Y5636D02*
X46909Y4801D01*
X44251Y5176D02*
X44608Y5533D01*
X44251Y4762D02*
Y5176D01*
X42925Y5425D02*
Y7823D01*
X46272Y13966D02*
X46530Y14224D01*
X44765Y13259D02*
X45731Y12293D01*
X44765Y13673D02*
X45058Y13966D01*
X46272D01*
X44765Y13259D02*
Y13673D01*
X45731Y12293D02*
X46791D01*
X45316Y11293D02*
X46377D01*
X43765Y12844D02*
X45316Y11293D01*
X43765Y12844D02*
Y13448D01*
X42259Y13741D02*
X43472D01*
X43765Y13448D01*
X42000Y14000D02*
X42259Y13741D01*
X49042Y8767D02*
Y10042D01*
X49333Y7931D02*
Y9022D01*
X46075Y18177D02*
Y21284D01*
X17350Y33000D02*
X18069Y32282D01*
X49224Y18177D02*
Y21776D01*
X47650Y18177D02*
Y21530D01*
X50799Y15381D02*
Y18177D01*
X41350Y4575D02*
Y7823D01*
Y10594D01*
X9976Y6438D02*
X12276Y4138D01*
X38184D02*
X38488Y4442D01*
X12276Y4138D02*
X38184D01*
X38598Y3138D02*
X39488Y4028D01*
X8976Y6024D02*
X11862Y3138D01*
X38598D01*
X38488Y4442D02*
Y5138D01*
X39488Y4028D02*
Y5138D01*
X38201Y5425D02*
X38488Y5138D01*
X39776Y7823D02*
X39884Y7715D01*
Y5533D02*
Y7715D01*
X39488Y5138D02*
X39884Y5533D01*
X47541Y7931D02*
X47650Y7823D01*
X47826Y8203D02*
Y9845D01*
X49224Y7823D02*
X49333Y7931D01*
X54862Y12924D02*
Y13000D01*
X53681Y11743D02*
X54862Y12924D01*
X53681Y10488D02*
Y11743D01*
X51500Y12924D02*
Y13000D01*
Y12924D02*
X52681Y11743D01*
Y10528D02*
Y11743D01*
X53681Y10488D02*
X54057Y10112D01*
Y7931D02*
Y10112D01*
X53949Y7823D02*
X54057Y7931D01*
X52374Y10221D02*
X52681Y10528D01*
X52374Y7823D02*
Y10221D01*
X57207Y22000D02*
X59152Y23945D01*
X53000Y22000D02*
X57207D01*
X59152Y32282D02*
X59870Y33000D01*
X59152Y23945D02*
Y32282D01*
X52374Y21374D02*
X53000Y22000D01*
X52374Y18177D02*
Y21374D01*
X8976Y6024D02*
Y26220D01*
X9976Y6438D02*
Y26220D01*
X10333Y32282D02*
X11051Y33000D01*
X10333Y26577D02*
Y32282D01*
X9976Y26220D02*
X10333Y26577D01*
X8620D02*
Y32282D01*
Y26577D02*
X8976Y26220D01*
X7902Y33000D02*
X8620Y32282D01*
X38201Y5425D02*
Y7823D01*
D18*
X15500Y9500D02*
D03*
D19*
X60089Y6009D02*
D03*
X50421Y33000D02*
D03*
X61957Y3213D02*
D03*
X53571Y33000D02*
D03*
X56721Y30906D02*
D03*
X37823Y30118D02*
D03*
X23754Y26417D02*
D03*
X14201Y33076D02*
D03*
X26500Y16076D02*
D03*
X25839Y34601D02*
D03*
X35926Y14688D02*
D03*
X4752Y33000D02*
D03*
X38988Y11747D02*
D03*
X42000Y14000D02*
D03*
X46530Y14224D02*
D03*
X44122Y33000D02*
D03*
X40972D02*
D03*
X63020D02*
D03*
X54862Y13000D02*
D03*
X34673Y33000D02*
D03*
X31524D02*
D03*
X51500Y13000D02*
D03*
M02*
