G04*
G04 #@! TF.GenerationSoftware,Altium Limited,Altium Designer,21.1.1 (26)*
G04*
G04 Layer_Color=8388736*
%FSLAX25Y25*%
%MOIN*%
G70*
G04*
G04 #@! TF.SameCoordinates,0F198C13-5191-4433-9763-90CB8E17D5DB*
G04*
G04*
G04 #@! TF.FilePolarity,Negative*
G04*
G01*
G75*
%ADD11R,0.02362X0.11811*%
%ADD12R,0.00866X0.03543*%
%ADD13R,0.00866X0.02362*%
%ADD14R,0.01968X0.03347*%
%ADD15C,0.06706*%
D11*
X28346Y33000D02*
D03*
X62992D02*
D03*
X59842D02*
D03*
X56693D02*
D03*
X53543D02*
D03*
X50394D02*
D03*
X47244D02*
D03*
X44094D02*
D03*
X40945D02*
D03*
X37795D02*
D03*
X34646D02*
D03*
X31496D02*
D03*
X3937D02*
D03*
X10236D02*
D03*
X13386D02*
D03*
X16535D02*
D03*
X7087D02*
D03*
X19685D02*
D03*
D12*
X44500Y18177D02*
D03*
X55524D02*
D03*
X53949Y7823D02*
D03*
Y18177D02*
D03*
X52374Y7823D02*
D03*
Y18177D02*
D03*
X50799Y7823D02*
D03*
Y18177D02*
D03*
X49224Y7823D02*
D03*
Y18177D02*
D03*
X47650Y7823D02*
D03*
Y18177D02*
D03*
X46075Y7823D02*
D03*
Y18177D02*
D03*
X44500Y7823D02*
D03*
X42925D02*
D03*
Y18177D02*
D03*
X41350Y7823D02*
D03*
Y18177D02*
D03*
X39776Y7823D02*
D03*
Y18177D02*
D03*
X38201Y7823D02*
D03*
Y18177D02*
D03*
X36626Y7823D02*
D03*
Y18177D02*
D03*
X35051Y7823D02*
D03*
Y18177D02*
D03*
X33476Y7823D02*
D03*
Y18177D02*
D03*
D13*
X55524Y7823D02*
D03*
D14*
X58673Y10087D02*
D03*
Y15913D02*
D03*
X30327D02*
D03*
Y10087D02*
D03*
D15*
X15500Y9500D02*
D03*
M02*
