G04*
G04 #@! TF.GenerationSoftware,Altium Limited,Altium Designer,21.1.1 (26)*
G04*
G04 Layer_Physical_Order=2*
G04 Layer_Color=16711680*
%FSLAX25Y25*%
%MOIN*%
G70*
G04*
G04 #@! TF.SameCoordinates,35221D43-94D7-4FF8-A6B6-1D0A0E8E6920*
G04*
G04*
G04 #@! TF.FilePolarity,Positive*
G04*
G01*
G75*
%ADD16C,0.00500*%
%ADD17C,0.00866*%
%ADD18C,0.05906*%
%ADD19C,0.02362*%
%ADD20C,0.01968*%
G36*
X65930Y1000D02*
X1000D01*
Y40733D01*
X65930D01*
Y1000D01*
D02*
G37*
%LPC*%
G36*
X61839Y39513D02*
X61839Y39513D01*
X24127D01*
X24127Y39513D01*
X23644Y39417D01*
X23548Y39398D01*
X23057Y39070D01*
X21337Y37350D01*
X21009Y36859D01*
X20990Y36763D01*
X20894Y36280D01*
X20894Y36280D01*
Y32927D01*
X20894Y32927D01*
X20990Y32444D01*
X21009Y32348D01*
X21337Y31857D01*
X23057Y30137D01*
X23057Y30137D01*
X23548Y29809D01*
X24127Y29694D01*
X25689D01*
X26924Y28459D01*
Y22176D01*
X26924Y22176D01*
X27020Y21693D01*
X27039Y21597D01*
X27367Y21106D01*
X34333Y14140D01*
X34501Y13735D01*
X34974Y13262D01*
X35592Y13007D01*
X36260D01*
X36878Y13262D01*
X37351Y13735D01*
X37607Y14353D01*
Y15022D01*
X37351Y15640D01*
X36878Y16113D01*
X36473Y16281D01*
X29951Y22803D01*
Y29086D01*
X29836Y29665D01*
X29507Y30156D01*
X29507Y30156D01*
X27386Y32278D01*
X26895Y32606D01*
X26799Y32625D01*
X26316Y32721D01*
X26316Y32721D01*
X24754D01*
X23921Y33554D01*
Y35653D01*
X24754Y36487D01*
X61212D01*
X61479Y36220D01*
Y33739D01*
X61311Y33334D01*
Y32666D01*
X61567Y32048D01*
X62040Y31575D01*
X62658Y31319D01*
X63327D01*
X63944Y31575D01*
X64417Y32048D01*
X64673Y32666D01*
Y33334D01*
X64505Y33739D01*
Y36847D01*
X64390Y37426D01*
X64062Y37917D01*
X64062Y37917D01*
X62909Y39070D01*
X62418Y39398D01*
X62322Y39417D01*
X61839Y39513D01*
D02*
G37*
G36*
X53878Y34681D02*
X53209D01*
X52591Y34425D01*
X52118Y33952D01*
X51968Y33591D01*
X51819Y33952D01*
X51346Y34425D01*
X50728Y34681D01*
X50059D01*
X49441Y34425D01*
X48968Y33952D01*
X48713Y33334D01*
Y32666D01*
X48968Y32048D01*
X49441Y31575D01*
X50059Y31319D01*
X50704D01*
Y30555D01*
X50762Y30262D01*
X50928Y30014D01*
X54483Y26459D01*
X54731Y26294D01*
X55023Y26235D01*
X58876D01*
X58854Y26202D01*
X58796Y25910D01*
Y25460D01*
X58854Y25167D01*
X59020Y24919D01*
X59319Y24619D01*
X59319Y24619D01*
X59567Y24453D01*
X59860Y24395D01*
X59860Y24395D01*
X60295D01*
Y23961D01*
X60353Y23668D01*
X60519Y23420D01*
X60818Y23120D01*
X60818Y23120D01*
X61067Y22954D01*
X61359Y22896D01*
X61359Y22896D01*
X61809D01*
X62039Y22942D01*
Y7134D01*
X61640Y6735D01*
X61502Y7067D01*
X61029Y7540D01*
X60411Y7796D01*
X59743D01*
X59125Y7540D01*
X58652Y7067D01*
X58396Y6449D01*
Y5780D01*
X58652Y5162D01*
X59125Y4690D01*
X59743Y4434D01*
X60411D01*
X60873Y4625D01*
X60520Y4271D01*
X60264Y3653D01*
Y2985D01*
X60520Y2367D01*
X60993Y1894D01*
X61611Y1638D01*
X62279D01*
X62897Y1894D01*
X63370Y2367D01*
X63626Y2985D01*
Y3653D01*
X63370Y4271D01*
X63066Y4576D01*
Y4584D01*
X64344Y5862D01*
X64510Y6110D01*
X64568Y6403D01*
Y24111D01*
X64510Y24404D01*
X64344Y24652D01*
X60455Y28541D01*
X60207Y28706D01*
X59914Y28765D01*
X55754D01*
X53233Y31286D01*
Y31319D01*
X53878D01*
X54496Y31575D01*
X54969Y32048D01*
X55224Y32666D01*
Y33334D01*
X54969Y33952D01*
X54496Y34425D01*
X53878Y34681D01*
D02*
G37*
G36*
X44429D02*
X43760D01*
X43142Y34425D01*
X42669Y33952D01*
X42520Y33591D01*
X42370Y33952D01*
X41897Y34425D01*
X41279Y34681D01*
X40611D01*
X39993Y34425D01*
X39520Y33952D01*
X39264Y33334D01*
Y32666D01*
X39520Y32048D01*
X39993Y31575D01*
X40611Y31319D01*
X41242D01*
Y30194D01*
X41300Y29901D01*
X41466Y29653D01*
X42951Y28168D01*
X43199Y28003D01*
X43492Y27944D01*
X46917D01*
X57735Y17126D01*
Y11817D01*
X54683Y8765D01*
X54149D01*
X54096Y9029D01*
X53931Y9277D01*
X53931Y9277D01*
X53609Y9599D01*
X53361Y9765D01*
X53068Y9823D01*
X52424D01*
X52132Y9765D01*
X51884Y9599D01*
X51884Y9599D01*
X51562Y9277D01*
X51508Y9196D01*
X51356Y9423D01*
X51356Y9423D01*
X51034Y9745D01*
X50786Y9911D01*
X50493Y9969D01*
X49850D01*
X49557Y9911D01*
X49309Y9745D01*
X49309Y9745D01*
X48987Y9423D01*
X48821Y9175D01*
X48763Y8883D01*
Y8765D01*
X47520D01*
X46130Y10155D01*
Y12543D01*
X46551D01*
X47169Y12799D01*
X47642Y13272D01*
X47898Y13890D01*
Y14559D01*
X47642Y15177D01*
X47169Y15650D01*
X46551Y15905D01*
X45882D01*
X45265Y15650D01*
X44792Y15177D01*
X44536Y14559D01*
Y14024D01*
X44359Y14450D01*
X43886Y14923D01*
X43268Y15179D01*
X42600D01*
X41982Y14923D01*
X41509Y14450D01*
X41253Y13832D01*
Y13163D01*
X41509Y12546D01*
X41982Y12073D01*
X42600Y11817D01*
X43268D01*
X43600Y11954D01*
Y9424D01*
X43659Y9131D01*
X43824Y8883D01*
X46248Y6459D01*
X46496Y6294D01*
X46789Y6235D01*
X55414D01*
X55707Y6294D01*
X55955Y6459D01*
X60041Y10545D01*
X60041Y10545D01*
X60207Y10793D01*
X60265Y11086D01*
X60265Y11086D01*
Y17857D01*
X60207Y18150D01*
X60041Y18398D01*
X48189Y30250D01*
X47941Y30415D01*
X47648Y30474D01*
X44223D01*
X43771Y30925D01*
Y31279D01*
X43811Y31319D01*
X44429D01*
X45047Y31575D01*
X45520Y32048D01*
X45776Y32666D01*
Y33334D01*
X45520Y33952D01*
X45047Y34425D01*
X44429Y34681D01*
D02*
G37*
G36*
X34980D02*
X34311D01*
X33693Y34425D01*
X33220Y33952D01*
X33071Y33591D01*
X32921Y33952D01*
X32448Y34425D01*
X31830Y34681D01*
X31162D01*
X30544Y34425D01*
X30071Y33952D01*
X29815Y33334D01*
Y32666D01*
X30071Y32048D01*
X30544Y31575D01*
X31162Y31319D01*
X31795D01*
Y28019D01*
X31853Y27726D01*
X32019Y27478D01*
X35546Y23951D01*
X35794Y23785D01*
X36086Y23727D01*
X45128D01*
X51916Y16939D01*
Y14647D01*
X51834Y14681D01*
X51166D01*
X50548Y14425D01*
X50075Y13952D01*
X49819Y13334D01*
Y12666D01*
X50075Y12048D01*
X50548Y11575D01*
X51166Y11319D01*
X51834D01*
X52452Y11575D01*
X52925Y12048D01*
X53181Y12666D01*
X53437Y12048D01*
X53910Y11575D01*
X54528Y11319D01*
X55197D01*
X55814Y11575D01*
X56287Y12048D01*
X56543Y12666D01*
Y13334D01*
X56287Y13952D01*
X55814Y14425D01*
X55197Y14681D01*
X54528D01*
X54446Y14647D01*
Y17670D01*
X54388Y17963D01*
X54222Y18211D01*
X46400Y26032D01*
X46152Y26198D01*
X45859Y26256D01*
X36817D01*
X34324Y28750D01*
Y31281D01*
X34362Y31319D01*
X34980D01*
X35598Y31575D01*
X36071Y32048D01*
X36327Y32666D01*
Y33334D01*
X36071Y33952D01*
X35598Y34425D01*
X34980Y34681D01*
D02*
G37*
G36*
X13720Y34757D02*
X13051D01*
X12434Y34501D01*
X11961Y34028D01*
X11705Y33410D01*
Y32741D01*
X11961Y32124D01*
X12434Y31651D01*
X13051Y31395D01*
X13720D01*
X14338Y31651D01*
X14811Y32124D01*
X14838Y32188D01*
X21149Y25876D01*
X21397Y25710D01*
X21690Y25652D01*
X22251D01*
X22329Y25465D01*
X22802Y24992D01*
X23420Y24736D01*
X24089D01*
X24706Y24992D01*
X25179Y25465D01*
X25435Y26083D01*
Y26751D01*
X25179Y27369D01*
X24706Y27842D01*
X24089Y28098D01*
X23420D01*
X22802Y27842D01*
X22329Y27369D01*
X22251Y27182D01*
X22007D01*
X15572Y33617D01*
X15324Y33782D01*
X15031Y33841D01*
X14889D01*
X14811Y34028D01*
X14338Y34501D01*
X13720Y34757D01*
D02*
G37*
G36*
X4271Y34681D02*
X3603D01*
X2985Y34425D01*
X2512Y33952D01*
X2256Y33334D01*
Y32666D01*
X2512Y32048D01*
X2985Y31575D01*
X3603Y31319D01*
X4271D01*
X4889Y31575D01*
X5362Y32048D01*
X5363Y32049D01*
X7106D01*
X19049Y20106D01*
Y15000D01*
X19049Y15000D01*
X19109Y14696D01*
X19121Y14636D01*
X19327Y14327D01*
X24327Y9327D01*
X24327Y9327D01*
X24533Y9189D01*
X24636Y9121D01*
X25000Y9049D01*
X25000Y9049D01*
X37242D01*
X37242Y9049D01*
X37545Y9109D01*
X37606Y9121D01*
X37914Y9327D01*
X38653Y10066D01*
X38654Y10065D01*
X39323D01*
X39940Y10322D01*
X40413Y10794D01*
X40669Y11412D01*
Y12081D01*
X40413Y12699D01*
X39940Y13172D01*
X39323Y13428D01*
X38654D01*
X38036Y13172D01*
X37563Y12699D01*
X37307Y12081D01*
Y11412D01*
X37308Y11411D01*
X36847Y10951D01*
X25394D01*
X20951Y15394D01*
Y20500D01*
X20951Y20500D01*
X20879Y20864D01*
X20810Y20967D01*
X20673Y21173D01*
X20673Y21173D01*
X8173Y33673D01*
X7864Y33879D01*
X7804Y33891D01*
X7500Y33951D01*
X7500Y33951D01*
X5363D01*
X5362Y33952D01*
X4889Y34425D01*
X4271Y34681D01*
D02*
G37*
%LPD*%
D16*
X59552Y26948D02*
X59552Y26948D01*
X59729Y26771D01*
X59851Y26649D01*
Y26200D02*
Y26649D01*
X59560Y25910D02*
X59851Y26200D01*
X59560Y25460D02*
Y25910D01*
Y25460D02*
X59860Y25160D01*
X60310D01*
X60600Y25450D01*
X61050D01*
X61350Y25150D01*
Y24701D02*
Y25150D01*
X61059Y24410D02*
X61350Y24701D01*
X61059Y23961D02*
Y24410D01*
Y23961D02*
X61359Y23661D01*
X61809D01*
X62099Y23951D01*
X62549D01*
X62549Y23951D01*
X62726Y23774D01*
X62803Y23697D01*
X59500Y27000D02*
X59552Y26948D01*
X47203Y8000D02*
X48956D01*
X53712D02*
X54462D01*
X53390Y8322D02*
X53712Y8000D01*
X53390Y8322D02*
Y8736D01*
X53068Y9058D02*
X53390Y8736D01*
X52424Y9058D02*
X53068D01*
X52103Y8736D02*
X52424Y9058D01*
X52103Y8322D02*
Y8736D01*
X51781Y8000D02*
X52103Y8322D01*
X51137Y8000D02*
X51781D01*
X50815Y8322D02*
X51137Y8000D01*
X50815Y8322D02*
Y8883D01*
X50493Y9205D02*
X50815Y8883D01*
X49850Y9205D02*
X50493D01*
X49528Y8883D02*
X49850Y9205D01*
X49528Y8322D02*
Y8883D01*
X49206Y8000D02*
X49528Y8322D01*
X48956Y8000D02*
X49206D01*
X54462D02*
X55000D01*
X45365Y9838D02*
X47203Y8000D01*
X55000D02*
X58500Y11500D01*
X44365Y9424D02*
Y12571D01*
X46789Y7000D02*
X55414D01*
X45365Y9838D02*
Y12869D01*
X44365Y9424D02*
X46789Y7000D01*
X43438Y13498D02*
X44365Y12571D01*
X45365Y12869D02*
X46217Y13721D01*
Y14224D01*
X40972Y32711D02*
Y33000D01*
X44122Y32711D02*
Y33000D01*
X47234Y28709D02*
X58500Y17443D01*
Y11500D02*
Y17443D01*
X40972Y32711D02*
X42006Y31678D01*
Y30194D02*
Y31678D01*
Y30194D02*
X43492Y28709D01*
X47234D01*
X47648Y29709D02*
X59500Y17857D01*
Y11086D02*
Y17857D01*
X55414Y7000D02*
X59500Y11086D01*
X43006Y31596D02*
X44122Y32711D01*
X43006Y30608D02*
Y31596D01*
Y30608D02*
X43906Y29709D01*
X47648D01*
X42934Y13498D02*
X43438D01*
X61745Y5759D02*
X62803Y6817D01*
X60077Y6115D02*
X60433Y5759D01*
X62301Y4901D02*
X63803Y6403D01*
X62301Y3675D02*
Y4901D01*
X62803Y6817D02*
Y23697D01*
X63803Y6403D02*
Y24111D01*
X60433Y5759D02*
X61745D01*
X59914Y28000D02*
X63803Y24111D01*
X61945Y3319D02*
X62301Y3675D01*
X33560Y28433D02*
X36501Y25492D01*
X32560Y28019D02*
Y31675D01*
X33560Y31598D02*
X34673Y32711D01*
X33560Y28433D02*
Y31598D01*
X32560Y28019D02*
X36086Y24492D01*
X31524Y32711D02*
X32560Y31675D01*
X34673Y32711D02*
Y33000D01*
X31524Y32711D02*
Y33000D01*
X21690Y26417D02*
X23754D01*
X15031Y33076D02*
X21690Y26417D01*
X13386Y33076D02*
X15031D01*
X51468Y30555D02*
X55023Y27000D01*
X50421Y32684D02*
X51468Y31637D01*
Y30555D02*
Y31637D01*
X52469Y30969D02*
Y31637D01*
X53571Y32739D01*
X52469Y30969D02*
X55438Y28000D01*
X55023Y27000D02*
X59500D01*
X50421Y32684D02*
Y33000D01*
X53571Y32739D02*
Y33000D01*
X55438Y28000D02*
X59914D01*
X36086Y24492D02*
X45445D01*
X36501Y25492D02*
X45859D01*
X45445Y24492D02*
X52681Y17256D01*
X45859Y25492D02*
X53681Y17670D01*
Y14257D02*
Y17670D01*
X52681Y14257D02*
Y17256D01*
X53681Y14257D02*
X54862Y13076D01*
X51500D02*
X52681Y14257D01*
X51500Y13000D02*
Y13076D01*
X54862Y13000D02*
Y13076D01*
D17*
X7500Y33000D02*
X20000Y20500D01*
X4752Y33000D02*
X7500D01*
X20000Y15000D02*
Y20500D01*
X25000Y10000D02*
X37242D01*
X20000Y15000D02*
X25000Y10000D01*
X37242D02*
X38988Y11747D01*
D18*
X15500Y9500D02*
D03*
D19*
X4500Y23500D02*
D03*
X4000Y7000D02*
D03*
X40945Y33000D02*
D03*
X44094D02*
D03*
X46217Y14224D02*
D03*
X42934Y13498D02*
D03*
X38988Y11747D02*
D03*
X61945Y3319D02*
D03*
X60077Y6115D02*
D03*
X3937Y33000D02*
D03*
X50394Y33000D02*
D03*
X53543D02*
D03*
X56693Y30906D02*
D03*
X37795Y30118D02*
D03*
X23754Y26417D02*
D03*
X13386Y33076D02*
D03*
X26500Y16076D02*
D03*
X25839Y34601D02*
D03*
X35926Y14688D02*
D03*
X62992Y33000D02*
D03*
X54862Y13000D02*
D03*
X34646Y33000D02*
D03*
X31496D02*
D03*
X51500Y13000D02*
D03*
D20*
X61839Y38000D02*
X62992Y36847D01*
X24127Y38000D02*
X61839D01*
X62992Y33000D02*
Y36847D01*
X28437Y22176D02*
Y29086D01*
X24127Y31207D02*
X26316D01*
X28437Y29086D01*
X22408Y32927D02*
X24127Y31207D01*
X22408Y32927D02*
Y36280D01*
X24127Y38000D01*
X28437Y22176D02*
X35926Y14688D01*
M02*
