M48
;Layer_Color=9474304
;FILE_FORMAT=2:5
INCH,TZ
;TYPE=PLATED
T1F00S00C0.01181
T2F00S00C0.03937
%
T01
X4752Y33000
X14201Y33076
X25839Y34601
X31524Y33000
X34673
X37823Y30118
X40972Y33000
X44122
X50421
X53571
X56721Y30906
X63020Y33000
X54862Y13000
X51500
X46530Y14224
X42000Y14000
X38988Y11747
X35926Y14688
X26500Y16076
X23754Y26417
X60089Y6009
X61957Y3213
T02
X15500Y9500
M30
