M48
;Layer_Color=9474304
;FILE_FORMAT=2:4
INCH,TZ
;TYPE=PLATED
T1F00S00C0.0118
T2F00S00C0.0394
%
T01
X400Y700
X450Y2350
X394Y3300
X1339Y3308
X2584Y3460
X3150Y3300
X3465
X3780Y3012
X4094Y3300
X4409
X5039
X5354
X5669Y3091
X6299Y3300
X5486Y1300
X5150
X4622Y1422
X4293Y1350
X3899Y1175
X3593Y1469
X2650Y1608
X2375Y2642
X6008Y611
X6194Y332
T02
X1550Y950
M30
